<svg xmlns="http://www.w3.org/2000/svg" viewBox="0 0 760 300">
  <defs><marker id="arrow" viewBox="0 0 10 10" refX="8" refY="5" markerWidth="7" markerHeight="7" orient="auto"><path d="M0 0L10 5L0 10Z" fill="#68726d"/></marker></defs>
  <g font-family="sans-serif">
    <text x="20" y="24" font-size="14" fill="#263a34" text-anchor="start" font-weight="600">稠密因果</text>
    <rect x="20" y="40" width="19" height="19" rx="2" fill="#e1eee9" stroke="#087f70"/>
    <rect x="42" y="40" width="19" height="19" rx="2" fill="#fffefa" stroke="#d5ddd7"/>
    <rect x="64" y="40" width="19" height="19" rx="2" fill="#fffefa" stroke="#d5ddd7"/>
    <rect x="86" y="40" width="19" height="19" rx="2" fill="#fffefa" stroke="#d5ddd7"/>
    <rect x="108" y="40" width="19" height="19" rx="2" fill="#fffefa" stroke="#d5ddd7"/>
    <rect x="130" y="40" width="19" height="19" rx="2" fill="#fffefa" stroke="#d5ddd7"/>
    <rect x="152" y="40" width="19" height="19" rx="2" fill="#fffefa" stroke="#d5ddd7"/>
    <rect x="174" y="40" width="19" height="19" rx="2" fill="#fffefa" stroke="#d5ddd7"/>
    <rect x="20" y="62" width="19" height="19" rx="2" fill="#e1eee9" stroke="#087f70"/>
    <rect x="42" y="62" width="19" height="19" rx="2" fill="#e1eee9" stroke="#087f70"/>
    <rect x="64" y="62" width="19" height="19" rx="2" fill="#fffefa" stroke="#d5ddd7"/>
    <rect x="86" y="62" width="19" height="19" rx="2" fill="#fffefa" stroke="#d5ddd7"/>
    <rect x="108" y="62" width="19" height="19" rx="2" fill="#fffefa" stroke="#d5ddd7"/>
    <rect x="130" y="62" width="19" height="19" rx="2" fill="#fffefa" stroke="#d5ddd7"/>
    <rect x="152" y="62" width="19" height="19" rx="2" fill="#fffefa" stroke="#d5ddd7"/>
    <rect x="174" y="62" width="19" height="19" rx="2" fill="#fffefa" stroke="#d5ddd7"/>
    <rect x="20" y="84" width="19" height="19" rx="2" fill="#e1eee9" stroke="#087f70"/>
    <rect x="42" y="84" width="19" height="19" rx="2" fill="#e1eee9" stroke="#087f70"/>
    <rect x="64" y="84" width="19" height="19" rx="2" fill="#e1eee9" stroke="#087f70"/>
    <rect x="86" y="84" width="19" height="19" rx="2" fill="#fffefa" stroke="#d5ddd7"/>
    <rect x="108" y="84" width="19" height="19" rx="2" fill="#fffefa" stroke="#d5ddd7"/>
    <rect x="130" y="84" width="19" height="19" rx="2" fill="#fffefa" stroke="#d5ddd7"/>
    <rect x="152" y="84" width="19" height="19" rx="2" fill="#fffefa" stroke="#d5ddd7"/>
    <rect x="174" y="84" width="19" height="19" rx="2" fill="#fffefa" stroke="#d5ddd7"/>
    <rect x="20" y="106" width="19" height="19" rx="2" fill="#e1eee9" stroke="#087f70"/>
    <rect x="42" y="106" width="19" height="19" rx="2" fill="#e1eee9" stroke="#087f70"/>
    <rect x="64" y="106" width="19" height="19" rx="2" fill="#e1eee9" stroke="#087f70"/>
    <rect x="86" y="106" width="19" height="19" rx="2" fill="#e1eee9" stroke="#087f70"/>
    <rect x="108" y="106" width="19" height="19" rx="2" fill="#fffefa" stroke="#d5ddd7"/>
    <rect x="130" y="106" width="19" height="19" rx="2" fill="#fffefa" stroke="#d5ddd7"/>
    <rect x="152" y="106" width="19" height="19" rx="2" fill="#fffefa" stroke="#d5ddd7"/>
    <rect x="174" y="106" width="19" height="19" rx="2" fill="#fffefa" stroke="#d5ddd7"/>
    <rect x="20" y="128" width="19" height="19" rx="2" fill="#e1eee9" stroke="#087f70"/>
    <rect x="42" y="128" width="19" height="19" rx="2" fill="#e1eee9" stroke="#087f70"/>
    <rect x="64" y="128" width="19" height="19" rx="2" fill="#e1eee9" stroke="#087f70"/>
    <rect x="86" y="128" width="19" height="19" rx="2" fill="#e1eee9" stroke="#087f70"/>
    <rect x="108" y="128" width="19" height="19" rx="2" fill="#e1eee9" stroke="#087f70"/>
    <rect x="130" y="128" width="19" height="19" rx="2" fill="#fffefa" stroke="#d5ddd7"/>
    <rect x="152" y="128" width="19" height="19" rx="2" fill="#fffefa" stroke="#d5ddd7"/>
    <rect x="174" y="128" width="19" height="19" rx="2" fill="#fffefa" stroke="#d5ddd7"/>
    <rect x="20" y="150" width="19" height="19" rx="2" fill="#e1eee9" stroke="#087f70"/>
    <rect x="42" y="150" width="19" height="19" rx="2" fill="#e1eee9" stroke="#087f70"/>
    <rect x="64" y="150" width="19" height="19" rx="2" fill="#e1eee9" stroke="#087f70"/>
    <rect x="86" y="150" width="19" height="19" rx="2" fill="#e1eee9" stroke="#087f70"/>
    <rect x="108" y="150" width="19" height="19" rx="2" fill="#e1eee9" stroke="#087f70"/>
    <rect x="130" y="150" width="19" height="19" rx="2" fill="#e1eee9" stroke="#087f70"/>
    <rect x="152" y="150" width="19" height="19" rx="2" fill="#fffefa" stroke="#d5ddd7"/>
    <rect x="174" y="150" width="19" height="19" rx="2" fill="#fffefa" stroke="#d5ddd7"/>
    <rect x="20" y="172" width="19" height="19" rx="2" fill="#e1eee9" stroke="#087f70"/>
    <rect x="42" y="172" width="19" height="19" rx="2" fill="#e1eee9" stroke="#087f70"/>
    <rect x="64" y="172" width="19" height="19" rx="2" fill="#e1eee9" stroke="#087f70"/>
    <rect x="86" y="172" width="19" height="19" rx="2" fill="#e1eee9" stroke="#087f70"/>
    <rect x="108" y="172" width="19" height="19" rx="2" fill="#e1eee9" stroke="#087f70"/>
    <rect x="130" y="172" width="19" height="19" rx="2" fill="#e1eee9" stroke="#087f70"/>
    <rect x="152" y="172" width="19" height="19" rx="2" fill="#e1eee9" stroke="#087f70"/>
    <rect x="174" y="172" width="19" height="19" rx="2" fill="#fffefa" stroke="#d5ddd7"/>
    <rect x="20" y="194" width="19" height="19" rx="2" fill="#e1eee9" stroke="#087f70"/>
    <rect x="42" y="194" width="19" height="19" rx="2" fill="#e1eee9" stroke="#087f70"/>
    <rect x="64" y="194" width="19" height="19" rx="2" fill="#e1eee9" stroke="#087f70"/>
    <rect x="86" y="194" width="19" height="19" rx="2" fill="#e1eee9" stroke="#087f70"/>
    <rect x="108" y="194" width="19" height="19" rx="2" fill="#e1eee9" stroke="#087f70"/>
    <rect x="130" y="194" width="19" height="19" rx="2" fill="#e1eee9" stroke="#087f70"/>
    <rect x="152" y="194" width="19" height="19" rx="2" fill="#e1eee9" stroke="#087f70"/>
    <rect x="174" y="194" width="19" height="19" rx="2" fill="#e1eee9" stroke="#087f70"/>
    <text x="20" y="238" font-size="12" fill="#68726d" text-anchor="start">每行读全部历史</text>
    <text x="270" y="24" font-size="14" fill="#263a34" text-anchor="start" font-weight="600">滑动窗口 w = 3</text>
    <rect x="270" y="40" width="19" height="19" rx="2" fill="#e1eee9" stroke="#087f70"/>
    <rect x="292" y="40" width="19" height="19" rx="2" fill="#fffefa" stroke="#d5ddd7"/>
    <rect x="314" y="40" width="19" height="19" rx="2" fill="#fffefa" stroke="#d5ddd7"/>
    <rect x="336" y="40" width="19" height="19" rx="2" fill="#fffefa" stroke="#d5ddd7"/>
    <rect x="358" y="40" width="19" height="19" rx="2" fill="#fffefa" stroke="#d5ddd7"/>
    <rect x="380" y="40" width="19" height="19" rx="2" fill="#fffefa" stroke="#d5ddd7"/>
    <rect x="402" y="40" width="19" height="19" rx="2" fill="#fffefa" stroke="#d5ddd7"/>
    <rect x="424" y="40" width="19" height="19" rx="2" fill="#fffefa" stroke="#d5ddd7"/>
    <rect x="270" y="62" width="19" height="19" rx="2" fill="#e1eee9" stroke="#087f70"/>
    <rect x="292" y="62" width="19" height="19" rx="2" fill="#e1eee9" stroke="#087f70"/>
    <rect x="314" y="62" width="19" height="19" rx="2" fill="#fffefa" stroke="#d5ddd7"/>
    <rect x="336" y="62" width="19" height="19" rx="2" fill="#fffefa" stroke="#d5ddd7"/>
    <rect x="358" y="62" width="19" height="19" rx="2" fill="#fffefa" stroke="#d5ddd7"/>
    <rect x="380" y="62" width="19" height="19" rx="2" fill="#fffefa" stroke="#d5ddd7"/>
    <rect x="402" y="62" width="19" height="19" rx="2" fill="#fffefa" stroke="#d5ddd7"/>
    <rect x="424" y="62" width="19" height="19" rx="2" fill="#fffefa" stroke="#d5ddd7"/>
    <rect x="270" y="84" width="19" height="19" rx="2" fill="#e1eee9" stroke="#087f70"/>
    <rect x="292" y="84" width="19" height="19" rx="2" fill="#e1eee9" stroke="#087f70"/>
    <rect x="314" y="84" width="19" height="19" rx="2" fill="#e1eee9" stroke="#087f70"/>
    <rect x="336" y="84" width="19" height="19" rx="2" fill="#fffefa" stroke="#d5ddd7"/>
    <rect x="358" y="84" width="19" height="19" rx="2" fill="#fffefa" stroke="#d5ddd7"/>
    <rect x="380" y="84" width="19" height="19" rx="2" fill="#fffefa" stroke="#d5ddd7"/>
    <rect x="402" y="84" width="19" height="19" rx="2" fill="#fffefa" stroke="#d5ddd7"/>
    <rect x="424" y="84" width="19" height="19" rx="2" fill="#fffefa" stroke="#d5ddd7"/>
    <rect x="270" y="106" width="19" height="19" rx="2" fill="#f0f3f1" stroke="#d5ddd7"/>
    <rect x="292" y="106" width="19" height="19" rx="2" fill="#e1eee9" stroke="#087f70"/>
    <rect x="314" y="106" width="19" height="19" rx="2" fill="#e1eee9" stroke="#087f70"/>
    <rect x="336" y="106" width="19" height="19" rx="2" fill="#e1eee9" stroke="#087f70"/>
    <rect x="358" y="106" width="19" height="19" rx="2" fill="#fffefa" stroke="#d5ddd7"/>
    <rect x="380" y="106" width="19" height="19" rx="2" fill="#fffefa" stroke="#d5ddd7"/>
    <rect x="402" y="106" width="19" height="19" rx="2" fill="#fffefa" stroke="#d5ddd7"/>
    <rect x="424" y="106" width="19" height="19" rx="2" fill="#fffefa" stroke="#d5ddd7"/>
    <rect x="270" y="128" width="19" height="19" rx="2" fill="#f0f3f1" stroke="#d5ddd7"/>
    <rect x="292" y="128" width="19" height="19" rx="2" fill="#f0f3f1" stroke="#d5ddd7"/>
    <rect x="314" y="128" width="19" height="19" rx="2" fill="#e1eee9" stroke="#087f70"/>
    <rect x="336" y="128" width="19" height="19" rx="2" fill="#e1eee9" stroke="#087f70"/>
    <rect x="358" y="128" width="19" height="19" rx="2" fill="#e1eee9" stroke="#087f70"/>
    <rect x="380" y="128" width="19" height="19" rx="2" fill="#fffefa" stroke="#d5ddd7"/>
    <rect x="402" y="128" width="19" height="19" rx="2" fill="#fffefa" stroke="#d5ddd7"/>
    <rect x="424" y="128" width="19" height="19" rx="2" fill="#fffefa" stroke="#d5ddd7"/>
    <rect x="270" y="150" width="19" height="19" rx="2" fill="#f0f3f1" stroke="#d5ddd7"/>
    <rect x="292" y="150" width="19" height="19" rx="2" fill="#f0f3f1" stroke="#d5ddd7"/>
    <rect x="314" y="150" width="19" height="19" rx="2" fill="#f0f3f1" stroke="#d5ddd7"/>
    <rect x="336" y="150" width="19" height="19" rx="2" fill="#e1eee9" stroke="#087f70"/>
    <rect x="358" y="150" width="19" height="19" rx="2" fill="#e1eee9" stroke="#087f70"/>
    <rect x="380" y="150" width="19" height="19" rx="2" fill="#e1eee9" stroke="#087f70"/>
    <rect x="402" y="150" width="19" height="19" rx="2" fill="#fffefa" stroke="#d5ddd7"/>
    <rect x="424" y="150" width="19" height="19" rx="2" fill="#fffefa" stroke="#d5ddd7"/>
    <rect x="270" y="172" width="19" height="19" rx="2" fill="#f0f3f1" stroke="#d5ddd7"/>
    <rect x="292" y="172" width="19" height="19" rx="2" fill="#f0f3f1" stroke="#d5ddd7"/>
    <rect x="314" y="172" width="19" height="19" rx="2" fill="#f0f3f1" stroke="#d5ddd7"/>
    <rect x="336" y="172" width="19" height="19" rx="2" fill="#f0f3f1" stroke="#d5ddd7"/>
    <rect x="358" y="172" width="19" height="19" rx="2" fill="#e1eee9" stroke="#087f70"/>
    <rect x="380" y="172" width="19" height="19" rx="2" fill="#e1eee9" stroke="#087f70"/>
    <rect x="402" y="172" width="19" height="19" rx="2" fill="#e1eee9" stroke="#087f70"/>
    <rect x="424" y="172" width="19" height="19" rx="2" fill="#fffefa" stroke="#d5ddd7"/>
    <rect x="270" y="194" width="19" height="19" rx="2" fill="#f0f3f1" stroke="#d5ddd7"/>
    <rect x="292" y="194" width="19" height="19" rx="2" fill="#f0f3f1" stroke="#d5ddd7"/>
    <rect x="314" y="194" width="19" height="19" rx="2" fill="#f0f3f1" stroke="#d5ddd7"/>
    <rect x="336" y="194" width="19" height="19" rx="2" fill="#f0f3f1" stroke="#d5ddd7"/>
    <rect x="358" y="194" width="19" height="19" rx="2" fill="#f0f3f1" stroke="#d5ddd7"/>
    <rect x="380" y="194" width="19" height="19" rx="2" fill="#e1eee9" stroke="#087f70"/>
    <rect x="402" y="194" width="19" height="19" rx="2" fill="#e1eee9" stroke="#087f70"/>
    <rect x="424" y="194" width="19" height="19" rx="2" fill="#e1eee9" stroke="#087f70"/>
    <text x="270" y="238" font-size="12" fill="#68726d" text-anchor="start">位置固定：只读最近 3 个</text>
    <text x="520" y="24" font-size="14" fill="#263a34" text-anchor="start" font-weight="600">按内容选 top-3</text>
    <rect x="520" y="40" width="19" height="19" rx="2" fill="#e1eee9" stroke="#087f70"/>
    <rect x="542" y="40" width="19" height="19" rx="2" fill="#fffefa" stroke="#d5ddd7"/>
    <rect x="564" y="40" width="19" height="19" rx="2" fill="#fffefa" stroke="#d5ddd7"/>
    <rect x="586" y="40" width="19" height="19" rx="2" fill="#fffefa" stroke="#d5ddd7"/>
    <rect x="608" y="40" width="19" height="19" rx="2" fill="#fffefa" stroke="#d5ddd7"/>
    <rect x="630" y="40" width="19" height="19" rx="2" fill="#fffefa" stroke="#d5ddd7"/>
    <rect x="652" y="40" width="19" height="19" rx="2" fill="#fffefa" stroke="#d5ddd7"/>
    <rect x="674" y="40" width="19" height="19" rx="2" fill="#fffefa" stroke="#d5ddd7"/>
    <rect x="520" y="62" width="19" height="19" rx="2" fill="#e1eee9" stroke="#087f70"/>
    <rect x="542" y="62" width="19" height="19" rx="2" fill="#e1eee9" stroke="#087f70"/>
    <rect x="564" y="62" width="19" height="19" rx="2" fill="#fffefa" stroke="#d5ddd7"/>
    <rect x="586" y="62" width="19" height="19" rx="2" fill="#fffefa" stroke="#d5ddd7"/>
    <rect x="608" y="62" width="19" height="19" rx="2" fill="#fffefa" stroke="#d5ddd7"/>
    <rect x="630" y="62" width="19" height="19" rx="2" fill="#fffefa" stroke="#d5ddd7"/>
    <rect x="652" y="62" width="19" height="19" rx="2" fill="#fffefa" stroke="#d5ddd7"/>
    <rect x="674" y="62" width="19" height="19" rx="2" fill="#fffefa" stroke="#d5ddd7"/>
    <rect x="520" y="84" width="19" height="19" rx="2" fill="#e1eee9" stroke="#087f70"/>
    <rect x="542" y="84" width="19" height="19" rx="2" fill="#e1eee9" stroke="#087f70"/>
    <rect x="564" y="84" width="19" height="19" rx="2" fill="#e1eee9" stroke="#087f70"/>
    <rect x="586" y="84" width="19" height="19" rx="2" fill="#fffefa" stroke="#d5ddd7"/>
    <rect x="608" y="84" width="19" height="19" rx="2" fill="#fffefa" stroke="#d5ddd7"/>
    <rect x="630" y="84" width="19" height="19" rx="2" fill="#fffefa" stroke="#d5ddd7"/>
    <rect x="652" y="84" width="19" height="19" rx="2" fill="#fffefa" stroke="#d5ddd7"/>
    <rect x="674" y="84" width="19" height="19" rx="2" fill="#fffefa" stroke="#d5ddd7"/>
    <rect x="520" y="106" width="19" height="19" rx="2" fill="#e1eee9" stroke="#087f70"/>
    <rect x="542" y="106" width="19" height="19" rx="2" fill="#e1eee9" stroke="#087f70"/>
    <rect x="564" y="106" width="19" height="19" rx="2" fill="#f0f3f1" stroke="#d5ddd7"/>
    <rect x="586" y="106" width="19" height="19" rx="2" fill="#e1eee9" stroke="#087f70"/>
    <rect x="608" y="106" width="19" height="19" rx="2" fill="#fffefa" stroke="#d5ddd7"/>
    <rect x="630" y="106" width="19" height="19" rx="2" fill="#fffefa" stroke="#d5ddd7"/>
    <rect x="652" y="106" width="19" height="19" rx="2" fill="#fffefa" stroke="#d5ddd7"/>
    <rect x="674" y="106" width="19" height="19" rx="2" fill="#fffefa" stroke="#d5ddd7"/>
    <rect x="520" y="128" width="19" height="19" rx="2" fill="#e1eee9" stroke="#087f70"/>
    <rect x="542" y="128" width="19" height="19" rx="2" fill="#f0f3f1" stroke="#d5ddd7"/>
    <rect x="564" y="128" width="19" height="19" rx="2" fill="#f0f3f1" stroke="#d5ddd7"/>
    <rect x="586" y="128" width="19" height="19" rx="2" fill="#e1eee9" stroke="#087f70"/>
    <rect x="608" y="128" width="19" height="19" rx="2" fill="#e1eee9" stroke="#087f70"/>
    <rect x="630" y="128" width="19" height="19" rx="2" fill="#fffefa" stroke="#d5ddd7"/>
    <rect x="652" y="128" width="19" height="19" rx="2" fill="#fffefa" stroke="#d5ddd7"/>
    <rect x="674" y="128" width="19" height="19" rx="2" fill="#fffefa" stroke="#d5ddd7"/>
    <rect x="520" y="150" width="19" height="19" rx="2" fill="#f0f3f1" stroke="#d5ddd7"/>
    <rect x="542" y="150" width="19" height="19" rx="2" fill="#e1eee9" stroke="#087f70"/>
    <rect x="564" y="150" width="19" height="19" rx="2" fill="#f0f3f1" stroke="#d5ddd7"/>
    <rect x="586" y="150" width="19" height="19" rx="2" fill="#e1eee9" stroke="#087f70"/>
    <rect x="608" y="150" width="19" height="19" rx="2" fill="#f0f3f1" stroke="#d5ddd7"/>
    <rect x="630" y="150" width="19" height="19" rx="2" fill="#e1eee9" stroke="#087f70"/>
    <rect x="652" y="150" width="19" height="19" rx="2" fill="#fffefa" stroke="#d5ddd7"/>
    <rect x="674" y="150" width="19" height="19" rx="2" fill="#fffefa" stroke="#d5ddd7"/>
    <rect x="520" y="172" width="19" height="19" rx="2" fill="#e1eee9" stroke="#087f70"/>
    <rect x="542" y="172" width="19" height="19" rx="2" fill="#f0f3f1" stroke="#d5ddd7"/>
    <rect x="564" y="172" width="19" height="19" rx="2" fill="#f0f3f1" stroke="#d5ddd7"/>
    <rect x="586" y="172" width="19" height="19" rx="2" fill="#f0f3f1" stroke="#d5ddd7"/>
    <rect x="608" y="172" width="19" height="19" rx="2" fill="#e1eee9" stroke="#087f70"/>
    <rect x="630" y="172" width="19" height="19" rx="2" fill="#f0f3f1" stroke="#d5ddd7"/>
    <rect x="652" y="172" width="19" height="19" rx="2" fill="#e1eee9" stroke="#087f70"/>
    <rect x="674" y="172" width="19" height="19" rx="2" fill="#fffefa" stroke="#d5ddd7"/>
    <rect x="520" y="194" width="19" height="19" rx="2" fill="#e1eee9" stroke="#087f70"/>
    <rect x="542" y="194" width="19" height="19" rx="2" fill="#f0f3f1" stroke="#d5ddd7"/>
    <rect x="564" y="194" width="19" height="19" rx="2" fill="#f0f3f1" stroke="#d5ddd7"/>
    <rect x="586" y="194" width="19" height="19" rx="2" fill="#e1eee9" stroke="#087f70"/>
    <rect x="608" y="194" width="19" height="19" rx="2" fill="#f0f3f1" stroke="#d5ddd7"/>
    <rect x="630" y="194" width="19" height="19" rx="2" fill="#f0f3f1" stroke="#d5ddd7"/>
    <rect x="652" y="194" width="19" height="19" rx="2" fill="#f0f3f1" stroke="#d5ddd7"/>
    <rect x="674" y="194" width="19" height="19" rx="2" fill="#e1eee9" stroke="#087f70"/>
    <text x="520" y="238" font-size="12" fill="#68726d" text-anchor="start">每行按索引器分数选 3 个</text>
    <text x="20" y="272" font-size="12" fill="#68726d" text-anchor="start">绿色格进入 softmax 分母，其余权重为零。最后一行的 top-3 选择 {0, 3, 7} 对应正文算例；选中集合改变，分母随之改变。</text>
  </g>
</svg>
